<svg xmlns="http://www.w3.org/2000/svg" viewBox="0 0 64 64" role="img" aria-label="AS">
  <rect width="64" height="64" fill="#fffaf4"/>
  <path fill="#44403c" d="M6 6h30v6H12v24H6V6Zm46 22h6v30H28v-6h24V28Z"/>
  <path fill="#44403c" d="M20.06 44h-6.54l8.86-24h7.18L38.42 44h-6.8l-1.43-4.33h-8.71L20.06 44Zm3.02-9.18h5.52l-2.76-8.39-2.76 8.39ZM42.63 44.43c-2.97 0-5.45-.66-7.43-1.98v-5.78c2.42 1.75 4.91 2.62 7.46 2.62 1.14 0 2.03-.17 2.65-.52.62-.35.93-.86.93-1.54 0-.61-.28-1.08-.84-1.41-.56-.35-1.67-.73-3.34-1.15-2.52-.63-4.36-1.48-5.52-2.56-1.16-1.1-1.74-2.7-1.74-4.8 0-2.36.88-4.2 2.65-5.52 1.79-1.32 4.14-1.98 7.06-1.98 2.69 0 4.95.52 6.8 1.55v5.58c-2.08-1.35-4.21-2.02-6.4-2.02-2.23 0-3.34.62-3.34 1.85 0 .61.25 1.06.76 1.35.54.3 1.61.65 3.21 1.04 2.71.65 4.65 1.55 5.84 2.69 1.19 1.12 1.78 2.71 1.78 4.77 0 2.52-.92 4.45-2.76 5.78-1.82 1.32-4.41 1.98-7.79 1.98Z"/>
  <path fill="#44403c" d="M14 50h5v5h-5v-5Zm8 0h5v5h-5v-5Zm8 0h5v5h-5v-5Z"/>
</svg>
