<svg xmlns="http://www.w3.org/2000/svg" version="1.1" xmlns:xlink="http://www.w3.org/1999/xlink" xmlns:svgjs="http://svgjs.dev/svgjs" viewBox="0 0 800 800" preserveAspectRatio="xMidYMid slice"><defs><pattern id="pppixelate-pattern" width="20" height="20" patternUnits="userSpaceOnUse" patternTransform="translate(55 0) scale(8.7) rotate(69)" shape-rendering="crispEdges">
    <rect width="1" height="1" x="0" y="0" fill="hsla(105, 15%, 11%, 1.00)"></rect><rect width="1" height="1" x="2" y="0" fill="hsla(105, 15%, 11%, 1.00)"></rect><rect width="1" height="1" x="3" y="0" fill="hsla(105, 15%, 11%, 1.00)"></rect><rect width="1" height="1" x="4" y="0" fill="hsla(105, 15%, 11%, 1.00)"></rect><rect width="1" height="1" x="5" y="0" fill="hsla(105, 15%, 11%, 1.00)"></rect><rect width="1" height="1" x="6" y="0" fill="hsla(105, 15%, 11%, 1.00)"></rect><rect width="1" height="1" x="8" y="0" fill="hsla(105, 15%, 11%, 1.00)"></rect><rect width="1" height="1" x="10" y="0" fill="hsla(105, 15%, 11%, 1.00)"></rect><rect width="1" height="1" x="11" y="0" fill="hsla(105, 15%, 11%, 1.00)"></rect><rect width="1" height="1" x="12" y="0" fill="hsla(105, 15%, 11%, 1.00)"></rect><rect width="1" height="1" x="13" y="0" fill="hsla(105, 15%, 11%, 1.00)"></rect><rect width="1" height="1" x="15" y="0" fill="hsla(105, 15%, 11%, 1.00)"></rect><rect width="1" height="1" x="16" y="0" fill="hsla(105, 15%, 11%, 1.00)"></rect><rect width="1" height="1" x="17" y="0" fill="hsla(105, 15%, 11%, 1.00)"></rect><rect width="1" height="1" x="18" y="0" fill="hsla(105, 15%, 11%, 1.00)"></rect><rect width="1" height="1" x="19" y="0" fill="hsla(105, 15%, 11%, 1.00)"></rect><rect width="1" height="1" x="0" y="1" fill="hsla(105, 15%, 11%, 1.00)"></rect><rect width="1" height="1" x="2" y="1" fill="hsla(105, 15%, 11%, 1.00)"></rect><rect width="1" height="1" x="3" y="1" fill="hsla(105, 15%, 11%, 1.00)"></rect><rect width="1" height="1" x="8" y="1" fill="hsla(105, 15%, 11%, 1.00)"></rect><rect width="1" height="1" x="10" y="1" fill="hsla(105, 15%, 11%, 1.00)"></rect><rect width="1" height="1" x="11" y="1" fill="hsla(105, 15%, 11%, 1.00)"></rect><rect width="1" height="1" x="14" y="1" fill="hsla(105, 15%, 11%, 1.00)"></rect><rect width="1" height="1" x="15" y="1" fill="hsla(105, 15%, 11%, 1.00)"></rect><rect width="1" height="1" x="17" y="1" fill="hsla(105, 15%, 11%, 1.00)"></rect><rect width="1" height="1" x="0" y="2" fill="hsla(105, 15%, 11%, 1.00)"></rect><rect width="1" height="1" x="1" y="2" fill="hsla(105, 15%, 11%, 1.00)"></rect><rect width="1" height="1" x="4" y="2" fill="hsla(105, 15%, 11%, 1.00)"></rect><rect width="1" height="1" x="7" y="2" fill="hsla(105, 15%, 11%, 1.00)"></rect><rect width="1" height="1" x="8" y="2" fill="hsla(105, 15%, 11%, 1.00)"></rect><rect width="1" height="1" x="9" y="2" fill="hsla(105, 15%, 11%, 1.00)"></rect><rect width="1" height="1" x="12" y="2" fill="hsla(105, 15%, 11%, 1.00)"></rect><rect width="1" height="1" x="13" y="2" fill="hsla(105, 15%, 11%, 1.00)"></rect><rect width="1" height="1" x="16" y="2" fill="hsla(105, 15%, 11%, 1.00)"></rect><rect width="1" height="1" x="17" y="2" fill="hsla(105, 15%, 11%, 1.00)"></rect><rect width="1" height="1" x="0" y="3" fill="hsla(105, 15%, 11%, 1.00)"></rect><rect width="1" height="1" x="3" y="3" fill="hsla(105, 15%, 11%, 1.00)"></rect><rect width="1" height="1" x="4" y="3" fill="hsla(105, 15%, 11%, 1.00)"></rect><rect width="1" height="1" x="8" y="3" fill="hsla(105, 15%, 11%, 1.00)"></rect><rect width="1" height="1" x="9" y="3" fill="hsla(105, 15%, 11%, 1.00)"></rect><rect width="1" height="1" x="10" y="3" fill="hsla(105, 15%, 11%, 1.00)"></rect><rect width="1" height="1" x="13" y="3" fill="hsla(105, 15%, 11%, 1.00)"></rect><rect width="1" height="1" x="14" y="3" fill="hsla(105, 15%, 11%, 1.00)"></rect><rect width="1" height="1" x="0" y="4" fill="hsla(105, 15%, 11%, 1.00)"></rect><rect width="1" height="1" x="1" y="4" fill="hsla(105, 15%, 11%, 1.00)"></rect><rect width="1" height="1" x="2" y="4" fill="hsla(105, 15%, 11%, 1.00)"></rect><rect width="1" height="1" x="3" y="4" fill="hsla(105, 15%, 11%, 1.00)"></rect><rect width="1" height="1" x="5" y="4" fill="hsla(105, 15%, 11%, 1.00)"></rect><rect width="1" height="1" x="7" y="4" fill="hsla(105, 15%, 11%, 1.00)"></rect><rect width="1" height="1" x="9" y="4" fill="hsla(105, 15%, 11%, 1.00)"></rect><rect width="1" height="1" x="12" y="4" fill="hsla(105, 15%, 11%, 1.00)"></rect><rect width="1" height="1" x="16" y="4" fill="hsla(105, 15%, 11%, 1.00)"></rect><rect width="1" height="1" x="0" y="5" fill="hsla(105, 15%, 11%, 1.00)"></rect><rect width="1" height="1" x="2" y="5" fill="hsla(105, 15%, 11%, 1.00)"></rect><rect width="1" height="1" x="3" y="5" fill="hsla(105, 15%, 11%, 1.00)"></rect><rect width="1" height="1" x="8" y="5" fill="hsla(105, 15%, 11%, 1.00)"></rect><rect width="1" height="1" x="11" y="5" fill="hsla(105, 15%, 11%, 1.00)"></rect><rect width="1" height="1" x="17" y="5" fill="hsla(105, 15%, 11%, 1.00)"></rect><rect width="1" height="1" x="5" y="6" fill="hsla(105, 15%, 11%, 1.00)"></rect><rect width="1" height="1" x="8" y="6" fill="hsla(105, 15%, 11%, 1.00)"></rect><rect width="1" height="1" x="18" y="6" fill="hsla(105, 15%, 11%, 1.00)"></rect><rect width="1" height="1" x="0" y="7" fill="hsla(105, 15%, 11%, 1.00)"></rect><rect width="1" height="1" x="1" y="7" fill="hsla(105, 15%, 11%, 1.00)"></rect><rect width="1" height="1" x="2" y="7" fill="hsla(105, 15%, 11%, 1.00)"></rect><rect width="1" height="1" x="3" y="7" fill="hsla(105, 15%, 11%, 1.00)"></rect><rect width="1" height="1" x="4" y="7" fill="hsla(105, 15%, 11%, 1.00)"></rect><rect width="1" height="1" x="5" y="7" fill="hsla(105, 15%, 11%, 1.00)"></rect><rect width="1" height="1" x="9" y="7" fill="hsla(105, 15%, 11%, 1.00)"></rect><rect width="1" height="1" x="16" y="7" fill="hsla(105, 15%, 11%, 1.00)"></rect><rect width="1" height="1" x="0" y="8" fill="hsla(105, 15%, 11%, 1.00)"></rect><rect width="1" height="1" x="3" y="8" fill="hsla(105, 15%, 11%, 1.00)"></rect><rect width="1" height="1" x="4" y="8" fill="hsla(105, 15%, 11%, 1.00)"></rect><rect width="1" height="1" x="5" y="8" fill="hsla(105, 15%, 11%, 1.00)"></rect><rect width="1" height="1" x="6" y="8" fill="hsla(105, 15%, 11%, 1.00)"></rect><rect width="1" height="1" x="8" y="8" fill="hsla(105, 15%, 11%, 1.00)"></rect><rect width="1" height="1" x="10" y="8" fill="hsla(105, 15%, 11%, 1.00)"></rect><rect width="1" height="1" x="11" y="8" fill="hsla(105, 15%, 11%, 1.00)"></rect><rect width="1" height="1" x="14" y="8" fill="hsla(105, 15%, 11%, 1.00)"></rect><rect width="1" height="1" x="16" y="8" fill="hsla(105, 15%, 11%, 1.00)"></rect><rect width="1" height="1" x="19" y="8" fill="hsla(105, 15%, 11%, 1.00)"></rect><rect width="1" height="1" x="0" y="9" fill="hsla(105, 15%, 11%, 1.00)"></rect><rect width="1" height="1" x="1" y="9" fill="hsla(105, 15%, 11%, 1.00)"></rect><rect width="1" height="1" x="2" y="9" fill="hsla(105, 15%, 11%, 1.00)"></rect><rect width="1" height="1" x="6" y="9" fill="hsla(105, 15%, 11%, 1.00)"></rect><rect width="1" height="1" x="7" y="9" fill="hsla(105, 15%, 11%, 1.00)"></rect><rect width="1" height="1" x="11" y="9" fill="hsla(105, 15%, 11%, 1.00)"></rect><rect width="1" height="1" x="12" y="9" fill="hsla(105, 15%, 11%, 1.00)"></rect><rect width="1" height="1" x="14" y="9" fill="hsla(105, 15%, 11%, 1.00)"></rect><rect width="1" height="1" x="15" y="9" fill="hsla(105, 15%, 11%, 1.00)"></rect><rect width="1" height="1" x="18" y="9" fill="hsla(105, 15%, 11%, 1.00)"></rect><rect width="1" height="1" x="6" y="10" fill="hsla(105, 15%, 11%, 1.00)"></rect><rect width="1" height="1" x="7" y="10" fill="hsla(105, 15%, 11%, 1.00)"></rect><rect width="1" height="1" x="10" y="10" fill="hsla(105, 15%, 11%, 1.00)"></rect><rect width="1" height="1" x="13" y="10" fill="hsla(105, 15%, 11%, 1.00)"></rect><rect width="1" height="1" x="16" y="10" fill="hsla(105, 15%, 11%, 1.00)"></rect><rect width="1" height="1" x="18" y="10" fill="hsla(105, 15%, 11%, 1.00)"></rect><rect width="1" height="1" x="0" y="11" fill="hsla(105, 15%, 11%, 1.00)"></rect><rect width="1" height="1" x="1" y="11" fill="hsla(105, 15%, 11%, 1.00)"></rect><rect width="1" height="1" x="6" y="11" fill="hsla(105, 15%, 11%, 1.00)"></rect><rect width="1" height="1" x="7" y="11" fill="hsla(105, 15%, 11%, 1.00)"></rect><rect width="1" height="1" x="11" y="11" fill="hsla(105, 15%, 11%, 1.00)"></rect><rect width="1" height="1" x="16" y="11" fill="hsla(105, 15%, 11%, 1.00)"></rect><rect width="1" height="1" x="18" y="11" fill="hsla(105, 15%, 11%, 1.00)"></rect><rect width="1" height="1" x="2" y="12" fill="hsla(105, 15%, 11%, 1.00)"></rect><rect width="1" height="1" x="4" y="12" fill="hsla(105, 15%, 11%, 1.00)"></rect><rect width="1" height="1" x="7" y="12" fill="hsla(105, 15%, 11%, 1.00)"></rect><rect width="1" height="1" x="8" y="12" fill="hsla(105, 15%, 11%, 1.00)"></rect><rect width="1" height="1" x="9" y="12" fill="hsla(105, 15%, 11%, 1.00)"></rect><rect width="1" height="1" x="10" y="12" fill="hsla(105, 15%, 11%, 1.00)"></rect><rect width="1" height="1" x="13" y="12" fill="hsla(105, 15%, 11%, 1.00)"></rect><rect width="1" height="1" x="14" y="12" fill="hsla(105, 15%, 11%, 1.00)"></rect><rect width="1" height="1" x="15" y="12" fill="hsla(105, 15%, 11%, 1.00)"></rect><rect width="1" height="1" x="17" y="12" fill="hsla(105, 15%, 11%, 1.00)"></rect><rect width="1" height="1" x="18" y="12" fill="hsla(105, 15%, 11%, 1.00)"></rect><rect width="1" height="1" x="2" y="13" fill="hsla(105, 15%, 11%, 1.00)"></rect><rect width="1" height="1" x="4" y="13" fill="hsla(105, 15%, 11%, 1.00)"></rect><rect width="1" height="1" x="10" y="13" fill="hsla(105, 15%, 11%, 1.00)"></rect><rect width="1" height="1" x="15" y="13" fill="hsla(105, 15%, 11%, 1.00)"></rect><rect width="1" height="1" x="18" y="13" fill="hsla(105, 15%, 11%, 1.00)"></rect><rect width="1" height="1" x="1" y="14" fill="hsla(105, 15%, 11%, 1.00)"></rect><rect width="1" height="1" x="5" y="14" fill="hsla(105, 15%, 11%, 1.00)"></rect><rect width="1" height="1" x="8" y="14" fill="hsla(105, 15%, 11%, 1.00)"></rect><rect width="1" height="1" x="10" y="14" fill="hsla(105, 15%, 11%, 1.00)"></rect><rect width="1" height="1" x="13" y="14" fill="hsla(105, 15%, 11%, 1.00)"></rect><rect width="1" height="1" x="14" y="14" fill="hsla(105, 15%, 11%, 1.00)"></rect><rect width="1" height="1" x="15" y="14" fill="hsla(105, 15%, 11%, 1.00)"></rect><rect width="1" height="1" x="16" y="14" fill="hsla(105, 15%, 11%, 1.00)"></rect><rect width="1" height="1" x="18" y="14" fill="hsla(105, 15%, 11%, 1.00)"></rect><rect width="1" height="1" x="0" y="15" fill="hsla(105, 15%, 11%, 1.00)"></rect><rect width="1" height="1" x="5" y="15" fill="hsla(105, 15%, 11%, 1.00)"></rect><rect width="1" height="1" x="6" y="15" fill="hsla(105, 15%, 11%, 1.00)"></rect><rect width="1" height="1" x="7" y="15" fill="hsla(105, 15%, 11%, 1.00)"></rect><rect width="1" height="1" x="9" y="15" fill="hsla(105, 15%, 11%, 1.00)"></rect><rect width="1" height="1" x="11" y="15" fill="hsla(105, 15%, 11%, 1.00)"></rect><rect width="1" height="1" x="13" y="15" fill="hsla(105, 15%, 11%, 1.00)"></rect><rect width="1" height="1" x="15" y="15" fill="hsla(105, 15%, 11%, 1.00)"></rect><rect width="1" height="1" x="16" y="15" fill="hsla(105, 15%, 11%, 1.00)"></rect><rect width="1" height="1" x="17" y="15" fill="hsla(105, 15%, 11%, 1.00)"></rect><rect width="1" height="1" x="18" y="15" fill="hsla(105, 15%, 11%, 1.00)"></rect><rect width="1" height="1" x="8" y="16" fill="hsla(105, 15%, 11%, 1.00)"></rect><rect width="1" height="1" x="9" y="16" fill="hsla(105, 15%, 11%, 1.00)"></rect><rect width="1" height="1" x="10" y="16" fill="hsla(105, 15%, 11%, 1.00)"></rect><rect width="1" height="1" x="11" y="16" fill="hsla(105, 15%, 11%, 1.00)"></rect><rect width="1" height="1" x="12" y="16" fill="hsla(105, 15%, 11%, 1.00)"></rect><rect width="1" height="1" x="14" y="16" fill="hsla(105, 15%, 11%, 1.00)"></rect><rect width="1" height="1" x="18" y="16" fill="hsla(105, 15%, 11%, 1.00)"></rect><rect width="1" height="1" x="1" y="17" fill="hsla(105, 15%, 11%, 1.00)"></rect><rect width="1" height="1" x="2" y="17" fill="hsla(105, 15%, 11%, 1.00)"></rect><rect width="1" height="1" x="3" y="17" fill="hsla(105, 15%, 11%, 1.00)"></rect><rect width="1" height="1" x="4" y="17" fill="hsla(105, 15%, 11%, 1.00)"></rect><rect width="1" height="1" x="15" y="17" fill="hsla(105, 15%, 11%, 1.00)"></rect><rect width="1" height="1" x="16" y="17" fill="hsla(105, 15%, 11%, 1.00)"></rect><rect width="1" height="1" x="1" y="18" fill="hsla(105, 15%, 11%, 1.00)"></rect><rect width="1" height="1" x="2" y="18" fill="hsla(105, 15%, 11%, 1.00)"></rect><rect width="1" height="1" x="3" y="18" fill="hsla(105, 15%, 11%, 1.00)"></rect><rect width="1" height="1" x="4" y="18" fill="hsla(105, 15%, 11%, 1.00)"></rect><rect width="1" height="1" x="5" y="18" fill="hsla(105, 15%, 11%, 1.00)"></rect><rect width="1" height="1" x="6" y="18" fill="hsla(105, 15%, 11%, 1.00)"></rect><rect width="1" height="1" x="7" y="18" fill="hsla(105, 15%, 11%, 1.00)"></rect><rect width="1" height="1" x="8" y="18" fill="hsla(105, 15%, 11%, 1.00)"></rect><rect width="1" height="1" x="9" y="18" fill="hsla(105, 15%, 11%, 1.00)"></rect><rect width="1" height="1" x="12" y="18" fill="hsla(105, 15%, 11%, 1.00)"></rect><rect width="1" height="1" x="13" y="18" fill="hsla(105, 15%, 11%, 1.00)"></rect><rect width="1" height="1" x="14" y="18" fill="hsla(105, 15%, 11%, 1.00)"></rect><rect width="1" height="1" x="15" y="18" fill="hsla(105, 15%, 11%, 1.00)"></rect><rect width="1" height="1" x="18" y="18" fill="hsla(105, 15%, 11%, 1.00)"></rect><rect width="1" height="1" x="19" y="18" fill="hsla(105, 15%, 11%, 1.00)"></rect><rect width="1" height="1" x="0" y="19" fill="hsla(105, 15%, 11%, 1.00)"></rect><rect width="1" height="1" x="1" y="19" fill="hsla(105, 15%, 11%, 1.00)"></rect><rect width="1" height="1" x="3" y="19" fill="hsla(105, 15%, 11%, 1.00)"></rect><rect width="1" height="1" x="4" y="19" fill="hsla(105, 15%, 11%, 1.00)"></rect><rect width="1" height="1" x="5" y="19" fill="hsla(105, 15%, 11%, 1.00)"></rect><rect width="1" height="1" x="6" y="19" fill="hsla(105, 15%, 11%, 1.00)"></rect><rect width="1" height="1" x="7" y="19" fill="hsla(105, 15%, 11%, 1.00)"></rect><rect width="1" height="1" x="8" y="19" fill="hsla(105, 15%, 11%, 1.00)"></rect><rect width="1" height="1" x="9" y="19" fill="hsla(105, 15%, 11%, 1.00)"></rect><rect width="1" height="1" x="10" y="19" fill="hsla(105, 15%, 11%, 1.00)"></rect><rect width="1" height="1" x="18" y="19" fill="hsla(105, 15%, 11%, 1.00)"></rect><rect width="1" height="1" x="19" y="19" fill="hsla(105, 15%, 11%, 1.00)"></rect>
  </pattern></defs><rect width="100%" height="100%" fill="url(#pppixelate-pattern)"></rect></svg>